HIERARCHY
ROOT Hips
{
	OFFSET 0.00000 0.00000 0.00000
	CHANNELS 6 Xposition Yposition Zposition Yrotation Zrotation Xrotation 
	JOINT Lumbar
	{
		OFFSET 0 0 0
		CHANNELS 3 Zrotation Xrotation Yrotation
		JOINT Neck
		{
			OFFSET 0.00 0.2701 0.00
			CHANNELS 3 Zrotation Xrotation Yrotation
			End Site
			{
				OFFSET 0.00 0.1379 0.00
			}
		}
		JOINT RightShoulder
		{
			OFFSET 0.0119 0.2289 0.1181
			CHANNELS 3 Zrotation Xrotation Yrotation
			JOINT RightElbow
			{
				OFFSET 0.00 -0.1475 0.00
				CHANNELS 2 Zrotation Yrotation
				JOINT RightWrist
				{
					OFFSET 0.00 -0.1605 0.00
					CHANNELS 2 Zrotation Xrotation
					End Site
					{
						OFFSET 0.0040 -0.1068 0.0006
					}
				}
			}
		}
		JOINT LeftShoulder
		{
			OFFSET 0.0119 0.2289 -0.1181
			CHANNELS 3 Zrotation Xrotation Yrotation
			JOINT LeftElbow
			{
				OFFSET 0.00 -0.1475 0.00
				CHANNELS 2 Zrotation Yrotation
				JOINT LeftWrist
				{
					OFFSET 0.00 -0.1605 0.00
					CHANNELS 2 Zrotation Xrotation
					End Site
					{
						OFFSET 0.0040 -0.1068 -0.0006
					}
				}
			}
		}
	}
	JOINT RightHip
	{
		OFFSET 0.0316 -0.0424 0.0458
		CHANNELS 3 Zrotation Xrotation Yrotation
		JOINT RightKnee
		{
			OFFSET 0.00 -0.2438 0.00
			CHANNELS 1 Zrotation
			JOINT RightAnkle
			{
				OFFSET 0.00 -0.2449 0.00
				CHANNELS 3 Zrotation Xrotation Yrotation
				End Site
				{
					OFFSET 0.1237 -0.0542 0.0051
				}
			}
		}
	}
	JOINT LeftHip
	{
		OFFSET 0.0316 -0.0424 -0.0458
		CHANNELS 3 Zrotation Xrotation Yrotation
		JOINT LeftKnee
		{
			OFFSET 0.00 -0.2438 0.00
			CHANNELS 1 Zrotation
			JOINT LeftAnkle
			{
				OFFSET 0.00 -0.2449 0.00
				CHANNELS 3 Zrotation Xrotation Yrotation
				End Site
				{
					OFFSET 0.1237 -0.0542 -0.0051
				}
			}
		}
	}
}
MOTION
Frames: 11
Frame Time: 0.02
0.24774 0.58395 0.54919 -206.05586 0 -5.10194 2.18523 1.36125 -0.54321 -12.61185 5.52037 0.08505 -17.38478 -47.74681 55.63418 74.82642 128.16583 -75.22934 -21.88682 7.91873 -16.11327 24.87591 134.3013 -65.00889 -75.22933 21.88676 16.41147 8.43072 4.66625 -22.17886 3.34472 -4.86598 -12.07934 2.38771 -1.35351 -10.65995 -17.93807 10.0564 7.60206 11.79672
0.24319 0.58381 0.54715 -205.86941 0 -5.22912 1.9947 1.47518 -1.21731 -12.54133 6.11197 0.42858 -17.60415 -48.63705 55.63418 75.18038 127.7123 -75.22934 -21.88683 6.92707 -16.28966 24.39461 134.30129 -64.32573 -75.22932 21.88665 16.54847 8.31298 4.95697 -19.38471 3.0715 -4.64876 -11.0413 1.76706 -1.19735 -10.66973 -17.66027 10.31707 7.81984 11.71348
0.23844 0.58356 0.54496 -205.59723 0 -5.32551 1.83404 1.59392 -1.97556 -12.50778 6.62481 0.83811 -17.77428 -49.46319 55.63418 75.50204 127.29856 -75.22934 -21.88683 5.81488 -16.18585 23.59998 134.30129 -63.17346 -75.22931 21.88651 16.53004 8.094 5.08849 -16.6109 2.97628 -4.44186 -9.9142 1.13634 -1.0752 -10.75814 -17.40556 10.5855 8.07091 11.64485
0.23375 0.58334 0.54281 -205.36503 0 -5.43343 1.66651 1.70952 -2.67714 -12.45923 7.17181 1.21008 -17.96529 -50.31108 55.63418 75.83395 126.86771 -75.22934 -21.88683 4.77565 -16.21552 22.96549 134.30128 -62.16195 -75.2293 21.88639 16.58419 7.92678 5.26108 -13.88513 2.79555 -4.23061 -8.8521 0.50929 -0.93874 -10.81462 -17.14608 10.85404 8.31231 11.57408
0.22917 0.58319 0.5408 -205.1263 0 -5.5501 1.46908 1.82797 -3.45809 -12.40128 7.72627 1.61489 -18.1651 -51.19045 55.63418 76.18255 126.43128 -75.22934 -21.88683 3.65418 -16.22165 22.25712 134.30128 -61.4574 -75.22928 21.88625 16.62834 7.73577 5.58094 -10.90944 2.62812 -4.01392 -7.67713 -0.11383 -0.7991 -10.85575 -16.8611 11.10695 8.5299 11.48232
0.22431 0.58286 0.53845 -204.88166 0 -5.6422 1.3427 1.94255 -4.09321 -12.37271 8.24473 1.96617 -18.3331 -51.98705 55.63418 76.4894 126.01802 -75.22934 -21.88683 2.6813 -16.20903 21.63061 134.30127 -60.00567 -75.22927 21.88615 16.65595 7.57112 5.55327 -8.46685 2.47706 -3.81329 -6.72141 -0.7483 -0.67281 -10.94722 -16.63521 11.39445 8.80593 11.43866
0.21879 0.58212 0.53524 -204.64233 0 -5.67045 1.39236 2.04 -4.30361 -12.41256 8.70179 2.15916 -18.43482 -52.59319 55.63418 76.68998 125.64082 -75.22934 -21.88683 2.10096 -16.21685 21.27194 134.30128 -56.56118 -75.22928 21.88624 16.6901 7.49166 4.56957 -7.43478 2.33373 -3.64465 -6.36979 -1.4024 -0.58351 -11.15899 -16.56769 11.7742 9.22638 11.52326
0.21299 0.5812 0.53166 -204.40059 0 -5.67625 1.51508 2.13477 -4.36437 -12.48176 9.12195 2.29484 -18.50373 -53.11414 55.63418 76.8498 125.28935 -75.22934 -21.88683 1.68309 -16.21446 21.01198 134.30128 -52.39281 -75.22929 21.88638 16.71081 7.44467 3.2459 -6.94935 2.1997 -3.49367 -6.24576 -2.06913 -0.5045 -11.41863 -16.55925 12.18848 9.70555 11.65668
0.20727 0.58035 0.52821 -204.15936 0 -5.69441 1.61266 2.23393 -4.49438 -12.53997 9.54692 2.45303 -18.58188 -53.65986 55.63418 77.02777 124.93744 -75.22934 -21.88683 1.22225 -16.21414 20.72964 134.30129 -48.57845 -75.2293 21.88648 16.72881 7.39017 2.09801 -6.25126 2.05956 -3.34199 -6.03562 -2.73613 -0.41545 -11.65575 -16.52291 12.58821 10.16442 11.76806
0.20172 0.57955 0.52495 -203.91601 0 -5.7009 1.67668 2.31861 -4.62218 -12.58888 10.01979 2.62862 -18.68442 -54.26284 55.63418 77.20591 124.53765 -75.22934 -21.88683 0.62777 -16.21514 20.34322 134.30129 -44.62393 -75.22932 21.88665 16.77843 7.29996 0.85378 -5.40329 1.93714 -3.16134 -5.75524 -3.37841 -0.35135 -11.89838 -16.49024 12.98453 10.6 11.87734
0.19576 0.57861 0.5212 -203.67958 0 -5.72859 1.82827 2.43431 -4.71784 -12.66446 10.38493 2.75332 -18.72635 -54.72633 55.63418 77.37475 124.2454 -75.22934 -21.88683 0.35066 -16.21436 20.19896 134.3013 -40.81834 -75.22933 21.88669 16.7612 7.2952 -0.26688 -4.99647 1.7731 -3.04303 -5.66871 -4.07469 -0.23588 -12.14046 -16.46561 13.39461 11.09443 12.00485
